<svg xmlns="http://www.w3.org/2000/svg" width="30" height="30" viewBox="0 0 30 30">
  <g id="Group_21" data-name="Group 21" transform="translate(-964 -250)">
    <g id="Rectangle_32" data-name="Rectangle 32" transform="translate(964 250)" fill="#fff" stroke="#707070" stroke-width="1">
      <rect width="30" height="30" rx="7" stroke="none"/>
      <rect x="0.5" y="0.5" width="29" height="29" rx="6.5" fill="none"/>
    </g>
    <path id="Icon_awesome-check" data-name="Icon awesome-check" d="M8.02,21.839.346,14.165a1.181,1.181,0,0,1,0-1.67l1.67-1.67a1.181,1.181,0,0,1,1.67,0L8.854,16,19.927,4.923a1.181,1.181,0,0,1,1.67,0l1.67,1.67a1.181,1.181,0,0,1,0,1.67L9.689,21.839A1.181,1.181,0,0,1,8.02,21.839Z" transform="translate(967.194 251.619)"/>
  </g>
</svg>
