<svg xmlns="http://www.w3.org/2000/svg" width="31.5" height="31.5" viewBox="0 0 31.5 31.5">
  <path id="Icon_material-call" data-name="Icon material-call" d="M10.835,18.132A26.51,26.51,0,0,0,22.367,29.665l3.85-3.85A1.74,1.74,0,0,1,28,25.395a19.962,19.962,0,0,0,6.248,1A1.755,1.755,0,0,1,36,28.142V34.25A1.755,1.755,0,0,1,34.25,36,29.747,29.747,0,0,1,4.5,6.25,1.755,1.755,0,0,1,6.25,4.5h6.125a1.755,1.755,0,0,1,1.75,1.75,19.881,19.881,0,0,0,1,6.247,1.756,1.756,0,0,1-.438,1.785l-3.85,3.85Z" transform="translate(-4.5 -4.5)"/>
</svg>
