<svg xmlns="http://www.w3.org/2000/svg" width="26.448" height="26.448" viewBox="0 0 26.448 26.448">
  <path id="Icon_awesome-gas-pump" data-name="Icon awesome-gas-pump" d="M17.357,23.142H.827A.829.829,0,0,0,0,23.969v1.653a.829.829,0,0,0,.827.827h16.53a.829.829,0,0,0,.827-.827V23.969A.829.829,0,0,0,17.357,23.142Zm8.12-17.6L21.293,1.359a.829.829,0,0,0-1.167,0l-.584.584a.829.829,0,0,0,0,1.167l1.947,1.947V8.265a2.888,2.888,0,0,0,2.48,2.851v8.306a1.24,1.24,0,1,1-2.48,0V17.77a4.546,4.546,0,0,0-4.546-4.546H16.53V3.306A3.309,3.309,0,0,0,13.224,0H4.959A3.309,3.309,0,0,0,1.653,3.306V21.489H16.53V15.7h.413A2.066,2.066,0,0,1,19.01,17.77v1.436a3.874,3.874,0,0,0,3.332,3.921,3.73,3.73,0,0,0,4.107-3.7V7.883a3.312,3.312,0,0,0-.971-2.34ZM13.224,9.918H4.959V3.306h8.265Z" fill="#484848"/>
</svg>
