<svg id="Icon_ionic-md-boat" data-name="Icon ionic-md-boat" xmlns="http://www.w3.org/2000/svg" width="38.313" height="36.945" viewBox="0 0 38.313 36.945">
  <path id="Path_1" data-name="Path 1" d="M6.719,35.6H6.81a10.026,10.026,0,0,0,7.3-3.736,10.05,10.05,0,0,0,7.3,3.759,10.055,10.055,0,0,0,7.3-3.763,10.03,10.03,0,0,0,7.3,3.74h.091l4.383-12.2a2.118,2.118,0,0,0-.092-1.492,1.8,1.8,0,0,0-1.075-.934l-3.268-1.1V11.251a3.769,3.769,0,0,0-3.687-3.779H26.872L25.5,2.813H17.3L15.929,7.472H10.457a3.758,3.758,0,0,0-3.675,3.779v8.629l-3.256,1.1a1.83,1.83,0,0,0-1.088.938A2.063,2.063,0,0,0,2.351,23.4ZM10.46,11.252H32.353V18.66L21.406,15,10.46,18.66Z" transform="translate(-2.25 -2.813)"/>
  <path id="Path_2" data-name="Path 2" d="M28.913,28.688a15.709,15.709,0,0,1-15.024,0s-5.076,4.5-9.39,4.5H6.377a19.808,19.808,0,0,0,7.512-1.8,20.023,20.023,0,0,0,15.024,0,19.807,19.807,0,0,0,7.512,1.8H38.3C34.107,33.188,28.913,28.688,28.913,28.688Z" transform="translate(-2.25 3.757)"/>
</svg>
