<svg xmlns="http://www.w3.org/2000/svg" width="27.924" height="27.924" viewBox="0 0 27.924 27.924">
  <path id="Icon_metro-warning" data-name="Icon metro-warning" d="M16.533,4.458l11.7,23.322H4.831l11.7-23.322Zm0-2.53a2.018,2.018,0,0,0-1.66,1.218L2.954,26.9c-.913,1.623-.136,2.952,1.726,2.952H28.386c1.863,0,2.639-1.328,1.726-2.952h0L18.193,3.146a2.018,2.018,0,0,0-1.66-1.218Zm1.745,22.688a1.745,1.745,0,1,1-1.745-1.745A1.745,1.745,0,0,1,18.278,24.616Zm-1.745-3.491a1.745,1.745,0,0,1-1.745-1.745V14.145a1.745,1.745,0,0,1,3.491,0v5.236A1.745,1.745,0,0,1,16.533,21.126Z" transform="translate(-2.571 -1.928)" fill="#484848"/>
</svg>
