<svg xmlns="http://www.w3.org/2000/svg" width="36.226" height="20.377" viewBox="0 0 36.226 20.377">
  <path id="Icon_metro-equalizer" data-name="Icon metro-equalizer" d="M18.419,6.12V5.554a1.7,1.7,0,0,0-1.7-1.7h-5.66a1.7,1.7,0,0,0-1.7,1.7V6.12H2.571v4.528H9.363v.566a1.7,1.7,0,0,0,1.7,1.7h5.66a1.7,1.7,0,0,0,1.7-1.7v-.566H38.8V6.12H18.419Zm-6.792,4.528V6.12h4.528v4.528ZM32,16.875a1.7,1.7,0,0,0-1.7-1.7h-5.66a1.7,1.7,0,0,0-1.7,1.7v.566H2.571v4.528H22.948v.566a1.7,1.7,0,0,0,1.7,1.7h5.66a1.7,1.7,0,0,0,1.7-1.7v-.566H38.8V17.441H32Zm-6.792,5.094V17.441H29.74v4.528Z" transform="translate(-2.571 -3.856)"/>
</svg>
