<svg xmlns="http://www.w3.org/2000/svg" width="27.044" height="27.061" viewBox="0 0 27.044 27.061">
  <g id="WATERICON" transform="translate(-173.852 -449.47)">
    <path id="Icon_ionic-md-water" data-name="Icon ionic-md-water" d="M14.494,6.124,10.821,2.25,7.147,6.124a5.7,5.7,0,0,0,0,7.743,5.013,5.013,0,0,0,7.348,0A5.689,5.689,0,0,0,14.494,6.124Z" transform="translate(176.552 454.14)" fill="#555"/>
    <path id="Icon_material-refresh" data-name="Icon material-refresh" d="M29.084,9.975A13.533,13.533,0,1,0,32.6,22.913H29.084a10.143,10.143,0,1,1-9.556-13.53,10,10,0,0,1,7.137,3.011L21.22,17.839H33.059V6Z" transform="translate(167.837 443.47)" fill="#5c5c5c"/>
  </g>
</svg>
